<?xml version="1.0" encoding="UTF-8"?>
<svg id="Layer_2" data-name="Layer 2" xmlns="http://www.w3.org/2000/svg" viewBox="0 0 421.33 421.33">
  <defs>
    <style>
      .cls-1, .cls-2 {
        fill: #fff;
      }

      .cls-1, .cls-3 {
        opacity: .9;
      }

      .cls-4 {
        fill: #badb62;
      }
    </style>
  </defs>
  <g id="Layer_1-2" data-name="Layer 1">
    <rect class="cls-4" width="421.33" height="421.33" rx="115.61" ry="115.61"/>
    <g>
      <g>
        <path class="cls-1" d="M151.72,288.26c-4.89,0-9.63-2.63-12.64-4.3-4.1-2.28-9.35-5.6-16.06-10.17-11.7-7.97-25.07-17.86-33.92-24.41-3.93-2.91-7.64-5.65-8.7-6.36-1.7-1.13-3.39-2.3-5.18-3.54-7.81-5.4-16.67-11.52-24.04-12.97-3.17-.62-5.94-2.58-7.61-5.38-3.04-5.09-1.57-11.47-.8-13.97,2.12-6.85,8.62-12.85,22.43-20.72,9.4-5.36,20.87-10.76,30.08-15.1,6.79-3.2,13.81-6.51,16.17-8.05,22.24-14.56,45.52-27.79,68.04-40.59,23.25-13.21,47.29-26.88,69.82-41.83.49-.34,2.27-1.74,3.71-2.87,14.05-11.1,21.15-16.31,28.88-13.53,13.49,4.85,25.29,15.69,36.71,26.17,12.69,11.65,25.8,23.69,39.54,25.82,4.33.67,7.67,3.77,8.86,7.7.89.72,1.69,1.59,2.35,2.6,3.31,5.11,1.85,11.94-3.27,15.24-56.74,36.71-159.55,107.53-207.06,143.81-2.34,1.79-4.84,2.45-7.31,2.45ZM69.25,209.81c6.59,3.3,12.78,7.58,18.51,11.54,1.72,1.19,3.34,2.31,4.89,3.34,1.43.96,4.27,3.05,9.57,6.97,24.46,18.1,40.5,29.25,47.86,33.26,45.37-34.24,132.12-94.19,188.96-131.59-13.34-6.25-24.86-16.82-35.35-26.46-8.94-8.21-17.45-16.03-25.65-20.11-3.5,2.33-8.98,6.65-11.36,8.54-2.64,2.08-4.07,3.2-5.18,3.94-23.17,15.38-47.55,29.23-71.12,42.63-22.22,12.63-45.2,25.69-66.86,39.87-3.64,2.38-10.02,5.39-18.84,9.55-8.57,4.04-18.28,8.62-26.58,13.2-3.87,2.14-6.74,3.9-8.86,5.33Z"/>
        <path class="cls-1" d="M152.91,334.68c-4.99,0-9.61-3.12-12.97-5.39-3.67-2.48-7.95-5.7-11.39-8.29-2.08-1.56-4.64-3.5-5.49-4.05-17.9-9.68-36.5-23.11-56.85-41.06-4.57-4.03-5-10.99-.97-15.56,4.03-4.57,11-5,15.56-.97,19.13,16.88,36.43,29.4,52.89,38.27,1.66.89,3.69,2.41,8.14,5.76,2.68,2.02,7.42,5.59,10.77,7.85,23.2-13.68,53.46-39.5,85.37-66.74,43.02-36.71,87.5-74.67,126.31-93.68,5.47-2.68,12.07-.42,14.75,5.05,2.68,5.47.42,12.07-5.05,14.75-36.31,17.79-79.72,54.83-121.7,90.66-35.01,29.88-68.08,58.1-93.88,72.01-1.85.99-3.69,1.4-5.48,1.4Z"/>
        <path class="cls-1" d="M155.47,365.62c-2.08,0-3.9-.43-5.62-1.17-17-7.35-46.78-30.45-70.71-49.02-3.15-2.44-6.14-4.76-8.89-6.88-4.82-3.72-5.72-10.64-2.01-15.46,3.72-4.82,10.64-5.72,15.46-2.01,2.77,2.14,5.78,4.47,8.95,6.93,19.49,15.12,48.44,37.59,63.67,45.14,3.36-1.36,12.5-6.33,35.9-24.41,19.24-14.86,43.03-34.59,66.03-53.67,25.05-20.78,50.96-42.27,71.27-57.7,32.94-25.02,42.55-27.72,50.57-24.13,5.56,2.49,8.04,9.01,5.55,14.57-2.04,4.55-6.8,7.04-11.5,6.43-2.74.95-11.37,5.26-36.22,24.47-19.09,14.75-42.73,34.36-65.59,53.33-79.06,65.58-103.36,83.58-116.85,83.58Z"/>
        <path class="cls-1" d="M111.44,221.43c-.79,0-1.59-.05-2.41-.16-5.34-.72-9.94-3.77-14.06-9.3-3.63-4.89-2.62-11.79,2.27-15.42,4.75-3.53,11.41-2.67,15.12,1.88,1.77-1.18,4.22-3.09,6.32-4.72,1.74-1.35,3.71-2.89,5.87-4.5,4.88-3.64,11.79-2.64,15.43,2.24,3.64,4.88,2.64,11.79-2.24,15.43-1.97,1.47-3.77,2.87-5.5,4.22-7.08,5.52-13.28,10.35-20.79,10.35Z"/>
        <path class="cls-1" d="M301.39,149.66c-3.64,0-7.21-1.8-9.31-5.1-2.35-3.69-2.23-8.25-.07-11.73-.18-1.21-.29-2.54-.29-4,0-6.09,4.94-11.02,11.02-11.02s11.02,4.94,11.02,11.02c0,.03,0,.06,0,.09,2.36,3.28,2.5,6.46,2.17,8.63-.82,5.41-4.55,7.78-8.49,10.29l-.15.1c-1.84,1.17-3.89,1.73-5.91,1.73Z"/>
        <path class="cls-2" d="M206.74,163.79c1.32-18.98,3.58-29.57,6.91-31.78l4.09-2.73c4.3-2.86,19.78,8.4,46.43,33.79l1.64,2.46c.58.87.31,2.68-.75,5.52l-6.55,4.36c-2.05,1.36-12.36-6.25-30.89-22.87-.15.1-1.55-1.11-4.23-3.69l-.2.14c-1.87,16.83-3.97,25.99-6.22,27.49l-.41.27c-.31.2-.6.32-.95.34-.15.32-.38.55-.68.75l-.2.14c-1.49.99-10.47-.19-26.94-3.63l7.5,11.26c10.53,15.81,15.15,24.19,13.76,25.11l-.27.48-3.28,2.18c-1.84,1.23-5.12-1.03-9.82-6.76-3.72-4.69-7.87-10.49-12.47-17.4l-11.18-16.79c-2.04-3.07-2.3-5.78-.68-8.12,1.28-1.07,1.88-1.62,1.77-1.77,3.69-2.45,8-3.19,13.03-2.18.6-.32,7.42.82,20.6,3.42Z"/>
      </g>
      <g>
        <path class="cls-3" d="M144.72,280.26c-4.89,0-9.63-2.63-12.64-4.3-4.1-2.28-9.35-5.6-16.06-10.17-11.7-7.97-25.07-17.86-33.92-24.41-3.93-2.91-7.64-5.65-8.7-6.36-1.7-1.13-3.39-2.3-5.18-3.54-7.81-5.4-16.67-11.52-24.04-12.97-3.17-.62-5.94-2.58-7.61-5.38-3.04-5.09-1.57-11.47-.8-13.97,2.12-6.85,8.62-12.85,22.43-20.72,9.4-5.36,20.87-10.76,30.08-15.1,6.79-3.2,13.81-6.51,16.17-8.05,22.24-14.56,45.52-27.79,68.04-40.59,23.25-13.21,47.29-26.88,69.82-41.83.49-.34,2.27-1.74,3.71-2.87,14.05-11.1,21.15-16.31,28.88-13.53,13.49,4.85,25.29,15.69,36.71,26.17,12.69,11.65,25.8,23.69,39.54,25.82,4.33.67,7.67,3.77,8.86,7.7.89.72,1.69,1.59,2.35,2.6,3.31,5.11,1.85,11.94-3.27,15.24-56.74,36.71-159.55,107.53-207.06,143.81-2.34,1.79-4.84,2.45-7.31,2.45ZM62.25,201.81c6.59,3.3,12.78,7.58,18.51,11.54,1.72,1.19,3.34,2.31,4.89,3.34,1.43.96,4.27,3.05,9.57,6.97,24.46,18.1,40.5,29.25,47.86,33.26,45.37-34.24,132.12-94.19,188.96-131.59-13.34-6.25-24.86-16.82-35.35-26.46-8.94-8.21-17.45-16.03-25.65-20.11-3.5,2.33-8.98,6.65-11.36,8.54-2.64,2.08-4.07,3.2-5.18,3.94-23.17,15.38-47.55,29.23-71.12,42.63-22.22,12.63-45.2,25.69-66.86,39.87-3.64,2.38-10.02,5.39-18.84,9.55-8.57,4.04-18.28,8.62-26.58,13.2-3.87,2.14-6.74,3.9-8.86,5.33Z"/>
        <path class="cls-3" d="M145.91,326.68c-4.99,0-9.61-3.12-12.97-5.39-3.67-2.48-7.95-5.7-11.39-8.29-2.08-1.56-4.64-3.5-5.49-4.05-17.9-9.68-36.5-23.11-56.85-41.06-4.57-4.03-5-10.99-.97-15.56,4.03-4.57,11-5,15.56-.97,19.13,16.88,36.43,29.4,52.89,38.27,1.66.89,3.69,2.41,8.14,5.76,2.68,2.02,7.42,5.59,10.77,7.85,23.2-13.68,53.46-39.5,85.37-66.74,43.02-36.71,87.5-74.67,126.31-93.68,5.47-2.68,12.07-.42,14.75,5.05,2.68,5.47.42,12.07-5.05,14.75-36.31,17.79-79.72,54.83-121.7,90.66-35.01,29.88-68.08,58.1-93.88,72.01-1.85.99-3.69,1.4-5.48,1.4Z"/>
        <path class="cls-3" d="M148.47,357.62c-2.08,0-3.9-.43-5.62-1.17-17-7.35-46.78-30.45-70.71-49.02-3.15-2.44-6.14-4.76-8.89-6.88-4.82-3.72-5.72-10.64-2.01-15.46,3.72-4.82,10.64-5.72,15.46-2.01,2.77,2.14,5.78,4.47,8.95,6.93,19.49,15.12,48.44,37.59,63.67,45.14,3.36-1.36,12.5-6.33,35.9-24.41,19.24-14.86,43.03-34.59,66.03-53.67,25.05-20.78,50.96-42.27,71.27-57.7,32.94-25.02,42.55-27.72,50.57-24.13,5.56,2.49,8.04,9.01,5.55,14.57-2.04,4.55-6.8,7.04-11.5,6.43-2.74.95-11.37,5.26-36.22,24.47-19.09,14.75-42.73,34.36-65.59,53.33-79.06,65.58-103.36,83.58-116.85,83.58Z"/>
        <path class="cls-3" d="M104.44,213.43c-.79,0-1.59-.05-2.41-.16-5.34-.72-9.94-3.77-14.06-9.3-3.63-4.89-2.62-11.79,2.27-15.42,4.75-3.53,11.41-2.67,15.12,1.88,1.77-1.18,4.22-3.09,6.32-4.72,1.74-1.35,3.71-2.89,5.87-4.5,4.88-3.64,11.79-2.64,15.43,2.24,3.64,4.88,2.64,11.79-2.24,15.43-1.97,1.47-3.77,2.87-5.5,4.22-7.08,5.52-13.28,10.35-20.79,10.35Z"/>
        <path class="cls-3" d="M294.39,141.66c-3.64,0-7.21-1.8-9.31-5.1-2.35-3.69-2.23-8.25-.07-11.73-.18-1.21-.29-2.54-.29-4,0-6.09,4.94-11.02,11.02-11.02s11.02,4.94,11.02,11.02c0,.03,0,.06,0,.09,2.36,3.28,2.5,6.46,2.17,8.63-.82,5.41-4.55,7.78-8.49,10.29l-.15.1c-1.84,1.17-3.89,1.73-5.91,1.73Z"/>
        <path d="M199.74,155.79c1.32-18.98,3.58-29.57,6.91-31.78l4.09-2.73c4.3-2.86,19.78,8.4,46.43,33.79l1.64,2.46c.58.87.31,2.68-.75,5.52l-6.55,4.36c-2.05,1.36-12.36-6.25-30.89-22.87-.15.1-1.55-1.11-4.23-3.69l-.2.14c-1.87,16.83-3.97,25.99-6.22,27.49l-.41.27c-.31.2-.6.32-.95.34-.15.32-.38.55-.68.75l-.2.14c-1.49.99-10.47-.19-26.94-3.63l7.5,11.26c10.53,15.81,15.15,24.19,13.76,25.11l-.27.48-3.28,2.18c-1.84,1.23-5.12-1.03-9.82-6.76-3.72-4.69-7.87-10.49-12.47-17.4l-11.18-16.79c-2.04-3.07-2.3-5.78-.68-8.12,1.28-1.07,1.88-1.62,1.77-1.77,3.69-2.45,8-3.19,13.03-2.18.6-.32,7.42.82,20.6,3.42Z"/>
      </g>
    </g>
  </g>
</svg>